<svg width="78" height="52" viewBox="0 0 78 52" fill="none" xmlns="http://www.w3.org/2000/svg">
<rect x="4" y="2" width="70" height="50" rx="2" fill="#282828"/>
<rect x="7" y="10" width="10" height="2" rx="1" fill="#6A6A6A"/>
<rect x="7" y="20" width="10" height="2" rx="1" fill="#6A6A6A"/>
<rect x="27" y="10" width="14" height="2" rx="1" fill="#6A6A6A"/>
<rect x="9" y="24" width="14" height="2" rx="1" fill="#6A6A6A"/>
<rect x="18" y="10" width="8" height="2" rx="1" fill="#6A6A6A"/>
<rect x="26" y="14" width="8" height="2" rx="1" fill="#6A6A6A"/>
<rect x="18" y="20" width="6" height="2" rx="1" fill="#6A6A6A"/>
<rect x="7" y="27" width="4" height="2" rx="1" fill="#6A6A6A"/>
<rect x="7" y="14" width="18" height="2" rx="1" fill="#6A6A6A"/>
<g filter="url(#filter0_d_1_9)">
<path d="M4 4C4 2.89543 4.89543 2 6 2H72C73.1046 2 74 2.89543 74 4V8H4V4Z" fill="#101010"/>
</g>
<circle cx="7" cy="5" r="1" fill="#EE5454"/>
<circle cx="10" cy="5" r="1" fill="#DF8B0E"/>
<circle cx="13" cy="5" r="1" fill="#189C1D"/>
<defs>
<filter id="filter0_d_1_9" x="0" y="0" width="78" height="14" filterUnits="userSpaceOnUse" color-interpolation-filters="sRGB">
<feFlood flood-opacity="0" result="BackgroundImageFix"/>
<feColorMatrix in="SourceAlpha" type="matrix" values="0 0 0 0 0 0 0 0 0 0 0 0 0 0 0 0 0 0 127 0" result="hardAlpha"/>
<feOffset dy="2"/>
<feGaussianBlur stdDeviation="2"/>
<feComposite in2="hardAlpha" operator="out"/>
<feColorMatrix type="matrix" values="0 0 0 0 0 0 0 0 0 0 0 0 0 0 0 0 0 0 0.25 0"/>
<feBlend mode="normal" in2="BackgroundImageFix" result="effect1_dropShadow_1_9"/>
<feBlend mode="normal" in="SourceGraphic" in2="effect1_dropShadow_1_9" result="shape"/>
</filter>
</defs>
</svg>
