<svg id="visual" viewBox="0 0 900 600" width="900" height="600" xmlns="http://www.w3.org/2000/svg" xmlns:xlink="http://www.w3.org/1999/xlink" version="1.1"><path d="M0 60L16.7 62.3C33.3 64.7 66.7 69.3 100 78.2C133.3 87 166.7 100 200 100.2C233.3 100.3 266.7 87.7 300 78.2C333.3 68.7 366.7 62.3 400 59.8C433.3 57.3 466.7 58.7 500 61.5C533.3 64.3 566.7 68.7 600 71C633.3 73.3 666.7 73.7 700 70.5C733.3 67.3 766.7 60.7 800 59.7C833.3 58.7 866.7 63.3 883.3 65.7L900 68L900 0L883.3 0C866.7 0 833.3 0 800 0C766.7 0 733.3 0 700 0C666.7 0 633.3 0 600 0C566.7 0 533.3 0 500 0C466.7 0 433.3 0 400 0C366.7 0 333.3 0 300 0C266.7 0 233.3 0 200 0C166.7 0 133.3 0 100 0C66.7 0 33.3 0 16.7 0L0 0Z" fill="#212426" stroke-linecap="round" stroke-linejoin="miter"></path></svg>